<?xml version="1.0" encoding="UTF-8" standalone="no"?><!-- Generator: Gravit.io --><svg xmlns="http://www.w3.org/2000/svg" xmlns:xlink="http://www.w3.org/1999/xlink" style="isolation:isolate" viewBox="0 0 500 500" width="500pt" height="500pt"><defs><clipPath id="_clipPath_spdy7a8h0IugAlRRlza1nPRnpGWVBI2Y"><rect width="500" height="500"/></clipPath></defs><g clip-path="url(#_clipPath_spdy7a8h0IugAlRRlza1nPRnpGWVBI2Y)"><rect width="500" height="500" style="fill:rgb(0,0,0)" fill-opacity="0"/><ellipse vector-effect="non-scaling-stroke" cx="249.99996317882733" cy="250.00026854028593" rx="249.99996317882733" ry="249.99999999999997" fill="rgb(255,255,255)"/><defs><filter id="8vRSVQTbHIZKxpmEp2AhA2xS7J87tFwn" x="-200%" y="-200%" width="400%" height="400%" filterUnits="objectBoundingBox" color-interpolation-filters="sRGB"><feGaussianBlur xmlns="http://www.w3.org/2000/svg" stdDeviation="10.73402265709757"/></filter></defs><g filter="url(#8vRSVQTbHIZKxpmEp2AhA2xS7J87tFwn)"><mask id="_mask_dSL8uwpQ8HBNRgmqSY2NbM0gmKpBVJzt"><path d=" M 207.76 386.807 L 226.335 321.608 C 205.312 300.584 184.567 279.282 164.108 257.709 L 109.497 267.182 C 100.209 289.101 91.479 311.205 82.934 333.496 L 142.933 403.339 C 164.851 398.881 186.213 393.122 207.76 386.807 L 207.76 386.807 Z  M 162.622 247.307 C 176.182 220.93 190.114 194.924 204.231 168.919 L 165.966 115.422 C 145.347 115.794 124.915 116.908 104.296 119.323 L 64.173 201.426 C 78.662 220.187 93.337 238.762 108.197 256.966 L 162.622 247.307 L 162.622 247.307 Z  M 300.989 179.879 L 349.471 139.57 C 344.641 118.023 337.954 96.661 330.895 75.486 L 210.528 55.982 C 197.897 73.442 186.009 91.46 174.863 109.664 L 213.871 164.275 C 242.849 169.105 272.012 174.12 300.989 179.879 Z  M 320.493 274.426 L 381.977 316.221 C 398.323 304.704 428.415 277.77 428.415 277.399 L 412.998 170.777 C 394.608 161.489 375.29 154.245 355.786 147.743 L 307.862 187.494 C 312.506 216.286 316.778 245.263 320.493 274.426 Z  M 315.849 283.714 C 289.658 297.274 263.096 310.462 236.347 323.279 L 218.144 389.407 C 234.304 404.639 250.65 418.013 267.925 431.944 L 375.476 384.578 C 376.776 364.702 377.333 345.012 377.333 325.323 C 376.962 325.137 376.776 325.323 376.405 324.951 L 315.849 283.714 L 315.849 283.714 Z  M 147.744 470.024 C 147.744 470.024 183.222 489.528 235.79 492.128 L 235.976 492.128 C 240.62 492.314 245.264 492.5 249.907 492.5 C 383.835 492.5 492.5 383.835 492.5 249.907 C 492.542 194.692 473.661 141.13 439.003 98.147 C 438.818 97.776 438.446 97.59 438.26 97.219 C 429.344 86.259 419.499 75.857 408.726 66.57 C 408.726 66.755 408.911 66.755 408.911 66.941 C 400.738 59.697 394.98 55.61 391.636 53.195 C 389.965 51.895 387.178 50.038 386.807 49.852 C 347.799 23.103 300.803 7.5 249.907 7.5 C 189.538 7.5 134.369 29.605 92.018 66.012 C 92.204 66.012 92.389 65.827 92.575 65.827 C 91.089 67.127 90.16 67.87 90.16 67.87 C 37.554 113.8 7.408 180.257 7.5 250.093 C 7.315 347.427 64.712 431.387 147.744 470.024 Z  M 29.605 313.806 C 25.89 287.801 22.175 261.795 18.274 235.79 C 28.862 227.06 42.05 205.884 56.353 193.996 L 93.875 115.794 C 94.247 97.962 93.504 90.532 95.919 72.699 L 164.461 33.506 C 165.947 32.948 167.248 32.391 168.734 31.834 C 180.993 35.735 191.581 40.193 202.726 44.279 L 332.196 65.269 C 349.099 61.183 366.003 57.468 382.906 53.567 L 435.102 118.394 C 431.387 135.484 427.858 152.573 423.4 169.291 L 438.818 275.727 C 439.003 276.841 456.278 312.691 463.894 326.066 C 460.551 343.155 443.833 376.219 434.917 389.407 C 416.341 390.707 397.766 392.379 379.377 393.865 L 274.984 440.118 C 264.025 451.077 244.706 472.439 237.462 480.612 C 233.375 480.612 227.989 480.797 219.63 479.311 C 190.838 474.482 173.192 470.581 152.202 459.436 C 148.115 447.919 139.57 424.886 134.927 409.468 L 77.158 340.369 C 60.44 333.496 40.936 323.651 29.605 313.806 L 29.605 313.806 Z " fill="white" stroke="none"/></mask><path d=" M 207.76 386.807 L 226.335 321.608 C 205.312 300.584 184.567 279.282 164.108 257.709 L 109.497 267.182 C 100.209 289.101 91.479 311.205 82.934 333.496 L 142.933 403.339 C 164.851 398.881 186.213 393.122 207.76 386.807 L 207.76 386.807 Z  M 162.622 247.307 C 176.182 220.93 190.114 194.924 204.231 168.919 L 165.966 115.422 C 145.347 115.794 124.915 116.908 104.296 119.323 L 64.173 201.426 C 78.662 220.187 93.337 238.762 108.197 256.966 L 162.622 247.307 L 162.622 247.307 Z  M 300.989 179.879 L 349.471 139.57 C 344.641 118.023 337.954 96.661 330.895 75.486 L 210.528 55.982 C 197.897 73.442 186.009 91.46 174.863 109.664 L 213.871 164.275 C 242.849 169.105 272.012 174.12 300.989 179.879 Z  M 320.493 274.426 L 381.977 316.221 C 398.323 304.704 428.415 277.77 428.415 277.399 L 412.998 170.777 C 394.608 161.489 375.29 154.245 355.786 147.743 L 307.862 187.494 C 312.506 216.286 316.778 245.263 320.493 274.426 Z  M 315.849 283.714 C 289.658 297.274 263.096 310.462 236.347 323.279 L 218.144 389.407 C 234.304 404.639 250.65 418.013 267.925 431.944 L 375.476 384.578 C 376.776 364.702 377.333 345.012 377.333 325.323 C 376.962 325.137 376.776 325.323 376.405 324.951 L 315.849 283.714 L 315.849 283.714 Z  M 147.744 470.024 C 147.744 470.024 183.222 489.528 235.79 492.128 L 235.976 492.128 C 240.62 492.314 245.264 492.5 249.907 492.5 C 383.835 492.5 492.5 383.835 492.5 249.907 C 492.542 194.692 473.661 141.13 439.003 98.147 C 438.818 97.776 438.446 97.59 438.26 97.219 C 429.344 86.259 419.499 75.857 408.726 66.57 C 408.726 66.755 408.911 66.755 408.911 66.941 C 400.738 59.697 394.98 55.61 391.636 53.195 C 389.965 51.895 387.178 50.038 386.807 49.852 C 347.799 23.103 300.803 7.5 249.907 7.5 C 189.538 7.5 134.369 29.605 92.018 66.012 C 92.204 66.012 92.389 65.827 92.575 65.827 C 91.089 67.127 90.16 67.87 90.16 67.87 C 37.554 113.8 7.408 180.257 7.5 250.093 C 7.315 347.427 64.712 431.387 147.744 470.024 Z  M 29.605 313.806 C 25.89 287.801 22.175 261.795 18.274 235.79 C 28.862 227.06 42.05 205.884 56.353 193.996 L 93.875 115.794 C 94.247 97.962 93.504 90.532 95.919 72.699 L 164.461 33.506 C 165.947 32.948 167.248 32.391 168.734 31.834 C 180.993 35.735 191.581 40.193 202.726 44.279 L 332.196 65.269 C 349.099 61.183 366.003 57.468 382.906 53.567 L 435.102 118.394 C 431.387 135.484 427.858 152.573 423.4 169.291 L 438.818 275.727 C 439.003 276.841 456.278 312.691 463.894 326.066 C 460.551 343.155 443.833 376.219 434.917 389.407 C 416.341 390.707 397.766 392.379 379.377 393.865 L 274.984 440.118 C 264.025 451.077 244.706 472.439 237.462 480.612 C 233.375 480.612 227.989 480.797 219.63 479.311 C 190.838 474.482 173.192 470.581 152.202 459.436 C 148.115 447.919 139.57 424.886 134.927 409.468 L 77.158 340.369 C 60.44 333.496 40.936 323.651 29.605 313.806 L 29.605 313.806 Z " fill="rgb(207,1,135)"/><path d=" M 207.76 386.807 L 226.335 321.608 C 205.312 300.584 184.567 279.282 164.108 257.709 L 109.497 267.182 C 100.209 289.101 91.479 311.205 82.934 333.496 L 142.933 403.339 C 164.851 398.881 186.213 393.122 207.76 386.807 L 207.76 386.807 Z  M 162.622 247.307 C 176.182 220.93 190.114 194.924 204.231 168.919 L 165.966 115.422 C 145.347 115.794 124.915 116.908 104.296 119.323 L 64.173 201.426 C 78.662 220.187 93.337 238.762 108.197 256.966 L 162.622 247.307 L 162.622 247.307 Z  M 300.989 179.879 L 349.471 139.57 C 344.641 118.023 337.954 96.661 330.895 75.486 L 210.528 55.982 C 197.897 73.442 186.009 91.46 174.863 109.664 L 213.871 164.275 C 242.849 169.105 272.012 174.12 300.989 179.879 Z  M 320.493 274.426 L 381.977 316.221 C 398.323 304.704 428.415 277.77 428.415 277.399 L 412.998 170.777 C 394.608 161.489 375.29 154.245 355.786 147.743 L 307.862 187.494 C 312.506 216.286 316.778 245.263 320.493 274.426 Z  M 315.849 283.714 C 289.658 297.274 263.096 310.462 236.347 323.279 L 218.144 389.407 C 234.304 404.639 250.65 418.013 267.925 431.944 L 375.476 384.578 C 376.776 364.702 377.333 345.012 377.333 325.323 C 376.962 325.137 376.776 325.323 376.405 324.951 L 315.849 283.714 L 315.849 283.714 Z  M 147.744 470.024 C 147.744 470.024 183.222 489.528 235.79 492.128 L 235.976 492.128 C 240.62 492.314 245.264 492.5 249.907 492.5 C 383.835 492.5 492.5 383.835 492.5 249.907 C 492.542 194.692 473.661 141.13 439.003 98.147 C 438.818 97.776 438.446 97.59 438.26 97.219 C 429.344 86.259 419.499 75.857 408.726 66.57 C 408.726 66.755 408.911 66.755 408.911 66.941 C 400.738 59.697 394.98 55.61 391.636 53.195 C 389.965 51.895 387.178 50.038 386.807 49.852 C 347.799 23.103 300.803 7.5 249.907 7.5 C 189.538 7.5 134.369 29.605 92.018 66.012 C 92.204 66.012 92.389 65.827 92.575 65.827 C 91.089 67.127 90.16 67.87 90.16 67.87 C 37.554 113.8 7.408 180.257 7.5 250.093 C 7.315 347.427 64.712 431.387 147.744 470.024 Z  M 29.605 313.806 C 25.89 287.801 22.175 261.795 18.274 235.79 C 28.862 227.06 42.05 205.884 56.353 193.996 L 93.875 115.794 C 94.247 97.962 93.504 90.532 95.919 72.699 L 164.461 33.506 C 165.947 32.948 167.248 32.391 168.734 31.834 C 180.993 35.735 191.581 40.193 202.726 44.279 L 332.196 65.269 C 349.099 61.183 366.003 57.468 382.906 53.567 L 435.102 118.394 C 431.387 135.484 427.858 152.573 423.4 169.291 L 438.818 275.727 C 439.003 276.841 456.278 312.691 463.894 326.066 C 460.551 343.155 443.833 376.219 434.917 389.407 C 416.341 390.707 397.766 392.379 379.377 393.865 L 274.984 440.118 C 264.025 451.077 244.706 472.439 237.462 480.612 C 233.375 480.612 227.989 480.797 219.63 479.311 C 190.838 474.482 173.192 470.581 152.202 459.436 C 148.115 447.919 139.57 424.886 134.927 409.468 L 77.158 340.369 C 60.44 333.496 40.936 323.651 29.605 313.806 L 29.605 313.806 Z " fill="rgb(207,1,135)" mask="url(#_mask_dSL8uwpQ8HBNRgmqSY2NbM0gmKpBVJzt)" vector-effect="non-scaling-stroke" stroke-width="20" stroke="rgb(207,1,135)" stroke-linejoin="miter" stroke-linecap="square" stroke-miterlimit="3"/></g><defs><filter id="6vZEqrmE6MvA7JdkANUeQB08oGc6MPpP" x="-200%" y="-200%" width="400%" height="400%" filterUnits="objectBoundingBox" color-interpolation-filters="sRGB"><feGaussianBlur xmlns="http://www.w3.org/2000/svg" stdDeviation="4.293609062839028"/></filter></defs><g filter="url(#6vZEqrmE6MvA7JdkANUeQB08oGc6MPpP)"><mask id="_mask_nJL6Z8YaaT0hPCxty5N16B3CbS7fMLu9"><path d=" M 207.76 386.807 L 226.335 321.608 C 205.312 300.584 184.567 279.282 164.108 257.709 L 109.497 267.182 C 100.209 289.101 91.479 311.205 82.934 333.496 L 142.933 403.339 C 164.851 398.881 186.213 393.122 207.76 386.807 L 207.76 386.807 Z  M 162.622 247.307 C 176.182 220.93 190.114 194.924 204.231 168.919 L 165.966 115.422 C 145.347 115.794 124.915 116.908 104.296 119.323 L 64.173 201.426 C 78.662 220.187 93.337 238.762 108.197 256.966 L 162.622 247.307 L 162.622 247.307 Z  M 300.989 179.879 L 349.471 139.57 C 344.641 118.023 337.954 96.661 330.895 75.486 L 210.528 55.982 C 197.897 73.442 186.009 91.46 174.863 109.664 L 213.871 164.275 C 242.849 169.105 272.012 174.12 300.989 179.879 Z  M 320.493 274.426 L 381.977 316.221 C 398.323 304.704 428.415 277.77 428.415 277.399 L 412.998 170.777 C 394.608 161.489 375.29 154.245 355.786 147.743 L 307.862 187.494 C 312.506 216.286 316.778 245.263 320.493 274.426 Z  M 315.849 283.714 C 289.658 297.274 263.096 310.462 236.347 323.279 L 218.144 389.407 C 234.304 404.639 250.65 418.013 267.925 431.944 L 375.476 384.578 C 376.776 364.702 377.333 345.012 377.333 325.323 C 376.962 325.137 376.776 325.323 376.405 324.951 L 315.849 283.714 L 315.849 283.714 Z  M 147.744 470.024 C 147.744 470.024 183.222 489.528 235.79 492.128 L 235.976 492.128 C 240.62 492.314 245.264 492.5 249.907 492.5 C 383.835 492.5 492.5 383.835 492.5 249.907 C 492.542 194.692 473.661 141.13 439.003 98.147 C 438.818 97.776 438.446 97.59 438.26 97.219 C 429.344 86.259 419.499 75.857 408.726 66.57 C 408.726 66.755 408.911 66.755 408.911 66.941 C 400.738 59.697 394.98 55.61 391.636 53.195 C 389.965 51.895 387.178 50.038 386.807 49.852 C 347.799 23.103 300.803 7.5 249.907 7.5 C 189.538 7.5 134.369 29.605 92.018 66.012 C 92.204 66.012 92.389 65.827 92.575 65.827 C 91.089 67.127 90.16 67.87 90.16 67.87 C 37.554 113.8 7.408 180.257 7.5 250.093 C 7.315 347.427 64.712 431.387 147.744 470.024 Z  M 29.605 313.806 C 25.89 287.801 22.175 261.795 18.274 235.79 C 28.862 227.06 42.05 205.884 56.353 193.996 L 93.875 115.794 C 94.247 97.962 93.504 90.532 95.919 72.699 L 164.461 33.506 C 165.947 32.948 167.248 32.391 168.734 31.834 C 180.993 35.735 191.581 40.193 202.726 44.279 L 332.196 65.269 C 349.099 61.183 366.003 57.468 382.906 53.567 L 435.102 118.394 C 431.387 135.484 427.858 152.573 423.4 169.291 L 438.818 275.727 C 439.003 276.841 456.278 312.691 463.894 326.066 C 460.551 343.155 443.833 376.219 434.917 389.407 C 416.341 390.707 397.766 392.379 379.377 393.865 L 274.984 440.118 C 264.025 451.077 244.706 472.439 237.462 480.612 C 233.375 480.612 227.989 480.797 219.63 479.311 C 190.838 474.482 173.192 470.581 152.202 459.436 C 148.115 447.919 139.57 424.886 134.927 409.468 L 77.158 340.369 C 60.44 333.496 40.936 323.651 29.605 313.806 L 29.605 313.806 Z " fill="white" stroke="none"/></mask><path d=" M 207.76 386.807 L 226.335 321.608 C 205.312 300.584 184.567 279.282 164.108 257.709 L 109.497 267.182 C 100.209 289.101 91.479 311.205 82.934 333.496 L 142.933 403.339 C 164.851 398.881 186.213 393.122 207.76 386.807 L 207.76 386.807 Z  M 162.622 247.307 C 176.182 220.93 190.114 194.924 204.231 168.919 L 165.966 115.422 C 145.347 115.794 124.915 116.908 104.296 119.323 L 64.173 201.426 C 78.662 220.187 93.337 238.762 108.197 256.966 L 162.622 247.307 L 162.622 247.307 Z  M 300.989 179.879 L 349.471 139.57 C 344.641 118.023 337.954 96.661 330.895 75.486 L 210.528 55.982 C 197.897 73.442 186.009 91.46 174.863 109.664 L 213.871 164.275 C 242.849 169.105 272.012 174.12 300.989 179.879 Z  M 320.493 274.426 L 381.977 316.221 C 398.323 304.704 428.415 277.77 428.415 277.399 L 412.998 170.777 C 394.608 161.489 375.29 154.245 355.786 147.743 L 307.862 187.494 C 312.506 216.286 316.778 245.263 320.493 274.426 Z  M 315.849 283.714 C 289.658 297.274 263.096 310.462 236.347 323.279 L 218.144 389.407 C 234.304 404.639 250.65 418.013 267.925 431.944 L 375.476 384.578 C 376.776 364.702 377.333 345.012 377.333 325.323 C 376.962 325.137 376.776 325.323 376.405 324.951 L 315.849 283.714 L 315.849 283.714 Z  M 147.744 470.024 C 147.744 470.024 183.222 489.528 235.79 492.128 L 235.976 492.128 C 240.62 492.314 245.264 492.5 249.907 492.5 C 383.835 492.5 492.5 383.835 492.5 249.907 C 492.542 194.692 473.661 141.13 439.003 98.147 C 438.818 97.776 438.446 97.59 438.26 97.219 C 429.344 86.259 419.499 75.857 408.726 66.57 C 408.726 66.755 408.911 66.755 408.911 66.941 C 400.738 59.697 394.98 55.61 391.636 53.195 C 389.965 51.895 387.178 50.038 386.807 49.852 C 347.799 23.103 300.803 7.5 249.907 7.5 C 189.538 7.5 134.369 29.605 92.018 66.012 C 92.204 66.012 92.389 65.827 92.575 65.827 C 91.089 67.127 90.16 67.87 90.16 67.87 C 37.554 113.8 7.408 180.257 7.5 250.093 C 7.315 347.427 64.712 431.387 147.744 470.024 Z  M 29.605 313.806 C 25.89 287.801 22.175 261.795 18.274 235.79 C 28.862 227.06 42.05 205.884 56.353 193.996 L 93.875 115.794 C 94.247 97.962 93.504 90.532 95.919 72.699 L 164.461 33.506 C 165.947 32.948 167.248 32.391 168.734 31.834 C 180.993 35.735 191.581 40.193 202.726 44.279 L 332.196 65.269 C 349.099 61.183 366.003 57.468 382.906 53.567 L 435.102 118.394 C 431.387 135.484 427.858 152.573 423.4 169.291 L 438.818 275.727 C 439.003 276.841 456.278 312.691 463.894 326.066 C 460.551 343.155 443.833 376.219 434.917 389.407 C 416.341 390.707 397.766 392.379 379.377 393.865 L 274.984 440.118 C 264.025 451.077 244.706 472.439 237.462 480.612 C 233.375 480.612 227.989 480.797 219.63 479.311 C 190.838 474.482 173.192 470.581 152.202 459.436 C 148.115 447.919 139.57 424.886 134.927 409.468 L 77.158 340.369 C 60.44 333.496 40.936 323.651 29.605 313.806 L 29.605 313.806 Z " fill="rgb(207,1,135)"/><path d=" M 207.76 386.807 L 226.335 321.608 C 205.312 300.584 184.567 279.282 164.108 257.709 L 109.497 267.182 C 100.209 289.101 91.479 311.205 82.934 333.496 L 142.933 403.339 C 164.851 398.881 186.213 393.122 207.76 386.807 L 207.76 386.807 Z  M 162.622 247.307 C 176.182 220.93 190.114 194.924 204.231 168.919 L 165.966 115.422 C 145.347 115.794 124.915 116.908 104.296 119.323 L 64.173 201.426 C 78.662 220.187 93.337 238.762 108.197 256.966 L 162.622 247.307 L 162.622 247.307 Z  M 300.989 179.879 L 349.471 139.57 C 344.641 118.023 337.954 96.661 330.895 75.486 L 210.528 55.982 C 197.897 73.442 186.009 91.46 174.863 109.664 L 213.871 164.275 C 242.849 169.105 272.012 174.12 300.989 179.879 Z  M 320.493 274.426 L 381.977 316.221 C 398.323 304.704 428.415 277.77 428.415 277.399 L 412.998 170.777 C 394.608 161.489 375.29 154.245 355.786 147.743 L 307.862 187.494 C 312.506 216.286 316.778 245.263 320.493 274.426 Z  M 315.849 283.714 C 289.658 297.274 263.096 310.462 236.347 323.279 L 218.144 389.407 C 234.304 404.639 250.65 418.013 267.925 431.944 L 375.476 384.578 C 376.776 364.702 377.333 345.012 377.333 325.323 C 376.962 325.137 376.776 325.323 376.405 324.951 L 315.849 283.714 L 315.849 283.714 Z  M 147.744 470.024 C 147.744 470.024 183.222 489.528 235.79 492.128 L 235.976 492.128 C 240.62 492.314 245.264 492.5 249.907 492.5 C 383.835 492.5 492.5 383.835 492.5 249.907 C 492.542 194.692 473.661 141.13 439.003 98.147 C 438.818 97.776 438.446 97.59 438.26 97.219 C 429.344 86.259 419.499 75.857 408.726 66.57 C 408.726 66.755 408.911 66.755 408.911 66.941 C 400.738 59.697 394.98 55.61 391.636 53.195 C 389.965 51.895 387.178 50.038 386.807 49.852 C 347.799 23.103 300.803 7.5 249.907 7.5 C 189.538 7.5 134.369 29.605 92.018 66.012 C 92.204 66.012 92.389 65.827 92.575 65.827 C 91.089 67.127 90.16 67.87 90.16 67.87 C 37.554 113.8 7.408 180.257 7.5 250.093 C 7.315 347.427 64.712 431.387 147.744 470.024 Z  M 29.605 313.806 C 25.89 287.801 22.175 261.795 18.274 235.79 C 28.862 227.06 42.05 205.884 56.353 193.996 L 93.875 115.794 C 94.247 97.962 93.504 90.532 95.919 72.699 L 164.461 33.506 C 165.947 32.948 167.248 32.391 168.734 31.834 C 180.993 35.735 191.581 40.193 202.726 44.279 L 332.196 65.269 C 349.099 61.183 366.003 57.468 382.906 53.567 L 435.102 118.394 C 431.387 135.484 427.858 152.573 423.4 169.291 L 438.818 275.727 C 439.003 276.841 456.278 312.691 463.894 326.066 C 460.551 343.155 443.833 376.219 434.917 389.407 C 416.341 390.707 397.766 392.379 379.377 393.865 L 274.984 440.118 C 264.025 451.077 244.706 472.439 237.462 480.612 C 233.375 480.612 227.989 480.797 219.63 479.311 C 190.838 474.482 173.192 470.581 152.202 459.436 C 148.115 447.919 139.57 424.886 134.927 409.468 L 77.158 340.369 C 60.44 333.496 40.936 323.651 29.605 313.806 L 29.605 313.806 Z " fill="rgb(207,1,135)" mask="url(#_mask_nJL6Z8YaaT0hPCxty5N16B3CbS7fMLu9)" vector-effect="non-scaling-stroke" stroke-width="20" stroke="rgb(207,1,135)" stroke-linejoin="miter" stroke-linecap="square" stroke-miterlimit="3"/></g><mask id="_mask_QraQCrQtlR075hiebP1fnR1tnPoedrV3"><path d=" M 207.76 386.807 L 226.335 321.608 C 205.312 300.584 184.567 279.282 164.108 257.709 L 109.497 267.182 C 100.209 289.101 91.479 311.205 82.934 333.496 L 142.933 403.339 C 164.851 398.881 186.213 393.122 207.76 386.807 L 207.76 386.807 Z  M 162.622 247.307 C 176.182 220.93 190.114 194.924 204.231 168.919 L 165.966 115.422 C 145.347 115.794 124.915 116.908 104.296 119.323 L 64.173 201.426 C 78.662 220.187 93.337 238.762 108.197 256.966 L 162.622 247.307 L 162.622 247.307 Z  M 300.989 179.879 L 349.471 139.57 C 344.641 118.023 337.954 96.661 330.895 75.486 L 210.528 55.982 C 197.897 73.442 186.009 91.46 174.863 109.664 L 213.871 164.275 C 242.849 169.105 272.012 174.12 300.989 179.879 Z  M 320.493 274.426 L 381.977 316.221 C 398.323 304.704 428.415 277.77 428.415 277.399 L 412.998 170.777 C 394.608 161.489 375.29 154.245 355.786 147.743 L 307.862 187.494 C 312.506 216.286 316.778 245.263 320.493 274.426 Z  M 315.849 283.714 C 289.658 297.274 263.096 310.462 236.347 323.279 L 218.144 389.407 C 234.304 404.639 250.65 418.013 267.925 431.944 L 375.476 384.578 C 376.776 364.702 377.333 345.012 377.333 325.323 C 376.962 325.137 376.776 325.323 376.405 324.951 L 315.849 283.714 L 315.849 283.714 Z  M 147.744 470.024 C 147.744 470.024 183.222 489.528 235.79 492.128 L 235.976 492.128 C 240.62 492.314 245.264 492.5 249.907 492.5 C 383.835 492.5 492.5 383.835 492.5 249.907 C 492.542 194.692 473.661 141.13 439.003 98.147 C 438.818 97.776 438.446 97.59 438.26 97.219 C 429.344 86.259 419.499 75.857 408.726 66.57 C 408.726 66.755 408.911 66.755 408.911 66.941 C 400.738 59.697 394.98 55.61 391.636 53.195 C 389.965 51.895 387.178 50.038 386.807 49.852 C 347.799 23.103 300.803 7.5 249.907 7.5 C 189.538 7.5 134.369 29.605 92.018 66.012 C 92.204 66.012 92.389 65.827 92.575 65.827 C 91.089 67.127 90.16 67.87 90.16 67.87 C 37.554 113.8 7.408 180.257 7.5 250.093 C 7.315 347.427 64.712 431.387 147.744 470.024 Z  M 29.605 313.806 C 25.89 287.801 22.175 261.795 18.274 235.79 C 28.862 227.06 42.05 205.884 56.353 193.996 L 93.875 115.794 C 94.247 97.962 93.504 90.532 95.919 72.699 L 164.461 33.506 C 165.947 32.948 167.248 32.391 168.734 31.834 C 180.993 35.735 191.581 40.193 202.726 44.279 L 332.196 65.269 C 349.099 61.183 366.003 57.468 382.906 53.567 L 435.102 118.394 C 431.387 135.484 427.858 152.573 423.4 169.291 L 438.818 275.727 C 439.003 276.841 456.278 312.691 463.894 326.066 C 460.551 343.155 443.833 376.219 434.917 389.407 C 416.341 390.707 397.766 392.379 379.377 393.865 L 274.984 440.118 C 264.025 451.077 244.706 472.439 237.462 480.612 C 233.375 480.612 227.989 480.797 219.63 479.311 C 190.838 474.482 173.192 470.581 152.202 459.436 C 148.115 447.919 139.57 424.886 134.927 409.468 L 77.158 340.369 C 60.44 333.496 40.936 323.651 29.605 313.806 L 29.605 313.806 Z " fill="white" stroke="none"/></mask><path d=" M 207.76 386.807 L 226.335 321.608 C 205.312 300.584 184.567 279.282 164.108 257.709 L 109.497 267.182 C 100.209 289.101 91.479 311.205 82.934 333.496 L 142.933 403.339 C 164.851 398.881 186.213 393.122 207.76 386.807 L 207.76 386.807 Z  M 162.622 247.307 C 176.182 220.93 190.114 194.924 204.231 168.919 L 165.966 115.422 C 145.347 115.794 124.915 116.908 104.296 119.323 L 64.173 201.426 C 78.662 220.187 93.337 238.762 108.197 256.966 L 162.622 247.307 L 162.622 247.307 Z  M 300.989 179.879 L 349.471 139.57 C 344.641 118.023 337.954 96.661 330.895 75.486 L 210.528 55.982 C 197.897 73.442 186.009 91.46 174.863 109.664 L 213.871 164.275 C 242.849 169.105 272.012 174.12 300.989 179.879 Z  M 320.493 274.426 L 381.977 316.221 C 398.323 304.704 428.415 277.77 428.415 277.399 L 412.998 170.777 C 394.608 161.489 375.29 154.245 355.786 147.743 L 307.862 187.494 C 312.506 216.286 316.778 245.263 320.493 274.426 Z  M 315.849 283.714 C 289.658 297.274 263.096 310.462 236.347 323.279 L 218.144 389.407 C 234.304 404.639 250.65 418.013 267.925 431.944 L 375.476 384.578 C 376.776 364.702 377.333 345.012 377.333 325.323 C 376.962 325.137 376.776 325.323 376.405 324.951 L 315.849 283.714 L 315.849 283.714 Z  M 147.744 470.024 C 147.744 470.024 183.222 489.528 235.79 492.128 L 235.976 492.128 C 240.62 492.314 245.264 492.5 249.907 492.5 C 383.835 492.5 492.5 383.835 492.5 249.907 C 492.542 194.692 473.661 141.13 439.003 98.147 C 438.818 97.776 438.446 97.59 438.26 97.219 C 429.344 86.259 419.499 75.857 408.726 66.57 C 408.726 66.755 408.911 66.755 408.911 66.941 C 400.738 59.697 394.98 55.61 391.636 53.195 C 389.965 51.895 387.178 50.038 386.807 49.852 C 347.799 23.103 300.803 7.5 249.907 7.5 C 189.538 7.5 134.369 29.605 92.018 66.012 C 92.204 66.012 92.389 65.827 92.575 65.827 C 91.089 67.127 90.16 67.87 90.16 67.87 C 37.554 113.8 7.408 180.257 7.5 250.093 C 7.315 347.427 64.712 431.387 147.744 470.024 Z  M 29.605 313.806 C 25.89 287.801 22.175 261.795 18.274 235.79 C 28.862 227.06 42.05 205.884 56.353 193.996 L 93.875 115.794 C 94.247 97.962 93.504 90.532 95.919 72.699 L 164.461 33.506 C 165.947 32.948 167.248 32.391 168.734 31.834 C 180.993 35.735 191.581 40.193 202.726 44.279 L 332.196 65.269 C 349.099 61.183 366.003 57.468 382.906 53.567 L 435.102 118.394 C 431.387 135.484 427.858 152.573 423.4 169.291 L 438.818 275.727 C 439.003 276.841 456.278 312.691 463.894 326.066 C 460.551 343.155 443.833 376.219 434.917 389.407 C 416.341 390.707 397.766 392.379 379.377 393.865 L 274.984 440.118 C 264.025 451.077 244.706 472.439 237.462 480.612 C 233.375 480.612 227.989 480.797 219.63 479.311 C 190.838 474.482 173.192 470.581 152.202 459.436 C 148.115 447.919 139.57 424.886 134.927 409.468 L 77.158 340.369 C 60.44 333.496 40.936 323.651 29.605 313.806 L 29.605 313.806 Z " fill="rgb(207,1,135)"/><path d=" M 207.76 386.807 L 226.335 321.608 C 205.312 300.584 184.567 279.282 164.108 257.709 L 109.497 267.182 C 100.209 289.101 91.479 311.205 82.934 333.496 L 142.933 403.339 C 164.851 398.881 186.213 393.122 207.76 386.807 L 207.76 386.807 Z  M 162.622 247.307 C 176.182 220.93 190.114 194.924 204.231 168.919 L 165.966 115.422 C 145.347 115.794 124.915 116.908 104.296 119.323 L 64.173 201.426 C 78.662 220.187 93.337 238.762 108.197 256.966 L 162.622 247.307 L 162.622 247.307 Z  M 300.989 179.879 L 349.471 139.57 C 344.641 118.023 337.954 96.661 330.895 75.486 L 210.528 55.982 C 197.897 73.442 186.009 91.46 174.863 109.664 L 213.871 164.275 C 242.849 169.105 272.012 174.12 300.989 179.879 Z  M 320.493 274.426 L 381.977 316.221 C 398.323 304.704 428.415 277.77 428.415 277.399 L 412.998 170.777 C 394.608 161.489 375.29 154.245 355.786 147.743 L 307.862 187.494 C 312.506 216.286 316.778 245.263 320.493 274.426 Z  M 315.849 283.714 C 289.658 297.274 263.096 310.462 236.347 323.279 L 218.144 389.407 C 234.304 404.639 250.65 418.013 267.925 431.944 L 375.476 384.578 C 376.776 364.702 377.333 345.012 377.333 325.323 C 376.962 325.137 376.776 325.323 376.405 324.951 L 315.849 283.714 L 315.849 283.714 Z  M 147.744 470.024 C 147.744 470.024 183.222 489.528 235.79 492.128 L 235.976 492.128 C 240.62 492.314 245.264 492.5 249.907 492.5 C 383.835 492.5 492.5 383.835 492.5 249.907 C 492.542 194.692 473.661 141.13 439.003 98.147 C 438.818 97.776 438.446 97.59 438.26 97.219 C 429.344 86.259 419.499 75.857 408.726 66.57 C 408.726 66.755 408.911 66.755 408.911 66.941 C 400.738 59.697 394.98 55.61 391.636 53.195 C 389.965 51.895 387.178 50.038 386.807 49.852 C 347.799 23.103 300.803 7.5 249.907 7.5 C 189.538 7.5 134.369 29.605 92.018 66.012 C 92.204 66.012 92.389 65.827 92.575 65.827 C 91.089 67.127 90.16 67.87 90.16 67.87 C 37.554 113.8 7.408 180.257 7.5 250.093 C 7.315 347.427 64.712 431.387 147.744 470.024 Z  M 29.605 313.806 C 25.89 287.801 22.175 261.795 18.274 235.79 C 28.862 227.06 42.05 205.884 56.353 193.996 L 93.875 115.794 C 94.247 97.962 93.504 90.532 95.919 72.699 L 164.461 33.506 C 165.947 32.948 167.248 32.391 168.734 31.834 C 180.993 35.735 191.581 40.193 202.726 44.279 L 332.196 65.269 C 349.099 61.183 366.003 57.468 382.906 53.567 L 435.102 118.394 C 431.387 135.484 427.858 152.573 423.4 169.291 L 438.818 275.727 C 439.003 276.841 456.278 312.691 463.894 326.066 C 460.551 343.155 443.833 376.219 434.917 389.407 C 416.341 390.707 397.766 392.379 379.377 393.865 L 274.984 440.118 C 264.025 451.077 244.706 472.439 237.462 480.612 C 233.375 480.612 227.989 480.797 219.63 479.311 C 190.838 474.482 173.192 470.581 152.202 459.436 C 148.115 447.919 139.57 424.886 134.927 409.468 L 77.158 340.369 C 60.44 333.496 40.936 323.651 29.605 313.806 L 29.605 313.806 Z " fill="rgb(207,1,135)" mask="url(#_mask_QraQCrQtlR075hiebP1fnR1tnPoedrV3)" vector-effect="non-scaling-stroke" stroke-width="20" stroke="rgb(255,255,255)" stroke-linejoin="miter" stroke-linecap="square" stroke-miterlimit="3"/></g></svg>